<?xml version="1.0"?>
<svg xmlns="http://www.w3.org/2000/svg" xmlns:xlink="http://www.w3.org/1999/xlink" width="512" height="512" viewBox="0 0 128 128"><defs><linearGradient id="a" x1="110.868" y1="110.589" x2="17.132" y2="16.852" gradientUnits="userSpaceOnUse"><stop offset="0" stop-color="#a260e5"/><stop offset="1" stop-color="#d85134"/></linearGradient></defs><path d="M81.352,73.653c-.486,1.368-1.026,2.734-1.607,4.061a1.75,1.75,0,0,1-3.207-1.4c.548-1.252,1.058-2.541,1.516-3.831a1.75,1.75,0,1,1,3.3,1.172ZM128,36.958a61.523,61.523,0,0,1-17.3,42.8A48.72,48.72,0,0,1,126.23,90.238l1.257,1.258a1.748,1.748,0,0,1,0,2.474l-1.257,1.258a48.949,48.949,0,0,1-49.844,12.054,61.724,61.724,0,0,1-9.558,12.373,4,4,0,0,1-5.657,0,61.826,61.826,0,0,1-9.558-12.373A48.948,48.948,0,0,1,1.77,95.228L.513,93.97a1.748,1.748,0,0,1,0-2.474L1.77,90.238A48.72,48.72,0,0,1,17.255,79.771,62.1,62.1,0,0,1,10.492,71.4a1.75,1.75,0,1,1,2.9-1.955,58.2,58.2,0,0,0,46.389,25.7,61.3,61.3,0,0,1-16.7-42.207c0-.455.024-.905.034-1.358A58.033,58.033,0,0,0,4,36.458H3.5v.5A58.283,58.283,0,0,0,6.118,54.281,1.75,1.75,0,1,1,2.776,55.32,61.765,61.765,0,0,1,0,36.958v-2.25a1.751,1.751,0,0,1,1.75-1.75H4a61.771,61.771,0,0,1,16.822,2.334,61.647,61.647,0,0,1,3.559-16.6l.769-2.115a1.751,1.751,0,0,1,2.244-1.046l2.114.77A61.361,61.361,0,0,1,48.579,27.438,61.747,61.747,0,0,1,61.172,9.277l1.59-1.591a1.8,1.8,0,0,1,2.476,0l1.591,1.591A61.864,61.864,0,0,1,79.423,27.436,61.4,61.4,0,0,1,98.492,16.3l2.114-.769a1.75,1.75,0,0,1,2.244,1.046l.769,2.115a61.709,61.709,0,0,1,3.56,16.6A61.764,61.764,0,0,1,124,32.958h2.25a1.751,1.751,0,0,1,1.75,1.75ZM80.849,30.846a61.084,61.084,0,0,1,3.8,16.3,61.554,61.554,0,0,1,19.084-10.773,58.15,58.15,0,0,0-3.405-16.491l-.171-.47-.47.17A57.9,57.9,0,0,0,80.849,30.846ZM43.359,47.157a61.389,61.389,0,0,1,3.8-16.307A57.877,57.877,0,0,0,28.311,19.586l-.47-.171-.171.47a58.121,58.121,0,0,0-3.4,16.491A61.559,61.559,0,0,1,43.359,47.157Zm8.174,56.452.008,0a1.726,1.726,0,0,1,.566-.192A45.8,45.8,0,0,0,61.471,98.7,61.673,61.673,0,0,1,20,82.452,45.24,45.24,0,0,0,4.245,92.713l-.02.02.02.02A45.5,45.5,0,0,0,51.533,103.609Zm21.513,2.456A49.423,49.423,0,0,1,64,101.22a49.484,49.484,0,0,1-9.046,4.845,58.257,58.257,0,0,0,8.692,11.115.435.435,0,0,0,.707,0A58.231,58.231,0,0,0,73.046,106.065Zm50.709-13.352a45.234,45.234,0,0,0-15.788-10.275A61.507,61.507,0,0,1,66.525,98.7a45.844,45.844,0,0,0,9.365,4.71,1.7,1.7,0,0,1,.569.192l.009.006a45.493,45.493,0,0,0,47.287-10.857l.02-.02Zm.745-56.255H124a58.029,58.029,0,0,0-39.113,15.12,62.683,62.683,0,0,1-.469,9.2,1.749,1.749,0,1,1-3.471-.441,59.336,59.336,0,0,0,.432-9.355,1.819,1.819,0,0,1-.005-.3A57.739,57.739,0,0,0,77.25,31.218a1.708,1.708,0,0,1-.162-.4A58.279,58.279,0,0,0,64.354,11.752L64,11.4l-.353.354A58.13,58.13,0,0,0,50.9,30.882a1.71,1.71,0,0,1-.063.163A58.347,58.347,0,0,0,63.646,94.13l.354.353.353-.353a58.938,58.938,0,0,0,6.377-7.548,1.75,1.75,0,1,1,2.855,2.024,62.242,62.242,0,0,1-5.37,6.553,58.309,58.309,0,0,0,56.285-58.2Z" fill="url(#a)"/></svg>
